<svg width="9" height="9" viewBox="0 0 9 9" fill="none" xmlns="http://www.w3.org/2000/svg">
<path fill-rule="evenodd" clip-rule="evenodd" d="M4.40367 7.29844L6.47957 8.36846C6.59391 8.4274 6.72416 8.44803 6.85111 8.42731C7.17816 8.37394 7.40001 8.06555 7.34664 7.7385L6.97047 5.43355L8.62961 3.78991C8.721 3.69938 8.78087 3.58188 8.80039 3.45474C8.85069 3.12721 8.62595 2.82091 8.29842 2.77061L5.99004 2.4161L4.93955 0.330248C4.88169 0.215362 4.78844 0.122113 4.67355 0.0642536C4.3776 -0.0847982 4.01685 0.0342915 3.8678 0.330248L2.8173 2.4161L0.508922 2.77061C0.38178 2.79014 0.264279 2.85001 0.173749 2.94139C-0.0594629 3.1768 -0.0576798 3.5567 0.177732 3.78991L1.83687 5.43355L1.46071 7.7385C1.43999 7.86546 1.46062 7.99571 1.51955 8.11005C1.67138 8.40459 2.03323 8.52029 2.32777 8.36846L4.40367 7.29844Z" fill="white"/>
</svg>
