<?xml version="1.0" encoding="UTF-8"?>
<svg id="b" data-name="Layer 2" xmlns="http://www.w3.org/2000/svg" viewBox="0 0 282.07 353.3">
  <g id="c" data-name="Layer 1">
    <g>
      <path d="M92.47,222.91l16.27-3.76c.34-.08.91-.21,1.6-.43,4.49-1.21,8.34-4.11,10.73-8.1,2.39-3.99,3.15-8.75,2.11-13.28-.02-.1-.04-.19-.07-.29-.53-2.17-1.47-4.22-2.76-6.05-1.82-2.31-4.08-4.25-6.64-5.7-3.02-1.72-6.18-3.18-9.44-4.37l-17.84-6.51c-10.01-3.72-20.02-7.35-30.12-10.89-6.55-2.33-12.1-4.38-16.93-5.87-.91-.28-1.92-.56-2.73-.84-5.83-1.79-9.93-2.53-13.4-2.55-2.32-.09-4.62.34-6.76,1.23-2.23.96-4.23,2.38-5.87,4.17-.82.93-1.58,1.9-2.3,2.91-.67,1.03-1.29,2.09-1.85,3.19-.62,1.17-1.14,2.39-1.58,3.64C1.57,179.19-.08,189.46,0,199.79c.06,9.34.31,21.32,5.44,29.45,1.24,2.08,2.9,3.89,4.87,5.29,3.66,2.53,7.35,2.86,11.2,3.14,5.74.41,11.31-1,16.86-2.28l54.05-12.49.04.02Z" style="fill: #ff1a1a;"/>
      <path d="M273.97,136.54c-4.44-9.32-10.41-17.83-17.67-25.18-.94-.93-1.94-1.79-3.01-2.58-.98-.74-2-1.42-3.06-2.05-1.08-.59-2.2-1.13-3.34-1.61-2.26-.89-4.67-1.28-7.1-1.17-2.32.13-4.57.77-6.62,1.86-3.1,1.54-6.46,4.02-10.92,8.17-.62.61-1.39,1.3-2.09,1.96-3.68,3.46-7.78,7.73-12.66,12.71-7.53,7.61-14.95,15.27-22.33,23.01l-13.19,13.68c-2.42,2.5-4.62,5.2-6.58,8.07-1.67,2.43-2.85,5.16-3.48,8.03-.36,2.21-.31,4.46.16,6.65.02.1.04.19.07.29,1.04,4.53,3.8,8.48,7.7,11.01,3.9,2.54,8.62,3.46,13.18,2.57.72-.1,1.28-.23,1.62-.31l70.34-16.25c5.54-1.28,11.17-2.46,16.15-5.35,3.34-1.94,6.52-3.86,8.7-7.73,1.17-2.13,1.87-4.48,2.07-6.89,1.08-9.59-3.93-20.47-7.95-28.9Z" style="fill: #ff1a1a;"/>
      <path d="M148.07,166.12c5.1-6.4,5.08-15.95,5.54-23.75,1.53-26.07,3.15-52.15,4.43-78.23.49-9.88,1.55-19.63.97-29.58-.48-8.21-.54-17.64-5.73-24.38C144.12-1.71,124.61-.73,111.29,1.11c-4.08.57-8.17,1.33-12.22,2.3s-8.07,2.04-11.99,3.29c-12.78,4.19-30.74,11.87-33.78,26.59-1.72,8.32,2.35,16.84,5.5,24.44,3.82,9.21,9.04,17.5,13.8,26.17,12.58,22.88,25.39,45.62,38.16,68.39,3.82,6.8,7.97,15.4,15.35,18.92.49.21.99.4,1.49.56,3.31,1.25,6.92,1.49,10.36.69.21-.05.41-.1.61-.14,3.18-.87,6.07-2.6,8.33-5,.41-.38.8-.79,1.16-1.21Z" style="fill: #ff1a1a;"/>
      <path d="M141.97,235.92c-1.99-2.8-4.81-4.9-8.07-5.99-3.25-1.1-6.77-1.14-10.05-.11-.77.26-1.52.57-2.24.93-1.12.57-2.19,1.24-3.2,1.99-2.93,2.17-5.4,4.99-7.65,7.82-.57.72-1.09,1.68-1.77,2.3l-11.31,15.56c-6.41,8.72-12.74,17.46-19.01,26.34-4.09,5.73-7.63,10.57-10.43,14.86-.53.81-1.08,1.71-1.58,2.42-3.35,5.18-5.25,8.97-6.22,12.34-.73,2.24-.96,4.61-.68,6.95.31,2.44,1.13,4.78,2.41,6.88.68,1.05,1.41,2.07,2.19,3.05.81.94,1.67,1.84,2.58,2.68.97.93,2.01,1.78,3.1,2.55,7.81,5.43,16.36,9.34,25.35,12.35,7.48,2.48,15.26,3.97,23.13,4.42,1.34.07,2.68.04,4.02-.09,1.24-.11,2.47-.28,3.69-.52,1.22-.29,2.42-.63,3.6-1.05,2.3-.86,4.39-2.19,6.15-3.91,1.66-1.66,2.94-3.66,3.74-5.87,1.31-3.26,2.17-7.4,2.73-13.54.05-.87.17-1.92.26-2.88.45-5.1.65-11.09.98-18.13.55-10.83.99-21.61,1.33-32.42,0,0,.73-19.21.73-19.23.17-4.43.03-9.33-1.2-13.74-.54-2.11-1.41-4.13-2.58-5.97h0Z" style="fill: #ff1a1a;"/>
      <path d="M269.68,266c-2.36-2.59-5.71-5.17-10.98-8.36-.76-.42-1.65-.99-2.48-1.49-4.39-2.64-9.69-5.42-15.87-8.78-9.5-5.21-19-10.3-28.6-15.34l-16.95-8.99c-.88-.26-1.77-.89-2.6-1.29-3.26-1.56-6.71-3.01-10.29-3.68-1.23-.24-2.49-.37-3.75-.39-.81-.01-1.62.04-2.42.15-3.39.52-6.53,2.11-8.97,4.52-2.44,2.41-4.05,5.54-4.62,8.92-.26,2.15-.18,4.33.23,6.46.83,4.51,2.84,8.97,4.93,12.88l9.05,16.97c5.04,9.57,10.14,19.08,15.36,28.57,3.37,6.19,6.18,11.48,8.8,15.87.5.82,1.06,1.71,1.49,2.48,3.2,5.27,5.77,8.6,8.38,10.98,1.69,1.63,3.71,2.87,5.93,3.64,2.33.77,4.8,1.05,7.24.8,1.24-.15,2.48-.36,3.7-.64,1.2-.32,2.39-.71,3.55-1.15,1.25-.47,2.47-1.04,3.65-1.68,6.88-3.86,13.22-8.61,18.87-14.13,6.77-6.66,12.75-13.92,17.4-22.23.65-1.18,1.21-2.4,1.68-3.65.44-1.16.82-2.35,1.14-3.55.28-1.22.49-2.46.63-3.7.23-2.44-.05-4.9-.83-7.23-.77-2.23-2.01-4.26-3.65-5.95h0Z" style="fill: #ff1a1a;"/>
    </g>
  </g>
</svg>
